# xmcd
#
# Track frame offsets: 
#        150
#        21532
#        52762
#
# Disc length: 986 seconds
#
# Revision: 2
# Processed by: cddbd v1.5.2PL0 Copyright (c) Steve Scherf et al.
# Submitted via: ExactAudioCopy v1.1
#
DISCID=1d03d803
DTITLE=trf - Overnight Sensation ～時代はあなたに委ねてる～
DYEAR=1995
DGENRE=J-Pop
TTITLE0=Overnight Sensation ～時代はあなたに委ねてる～ (Original Mix)
TTITLE1=Overnight Sensation ～時代はあなたに委ねてる～ (Extended Mix)
TTITLE2=Overnight Sensation ～時代はあなたに委ねてる～ (Original Karaoke)
EXTD=YEAR: 1995
EXTT0=
EXTT1=
EXTT2=
PLAYORDER=
